<svg width="36" height="36" viewBox="0 0 36 36" fill="none" xmlns="http://www.w3.org/2000/svg">
<g clip-path="url(#clip0_443_756)">
<path d="M7.20872 6.48437L7.40471 5.31214C7.67962 4.17727 8.32781 3.16766 9.24526 2.44532C10.1627 1.72298 11.2963 1.3298 12.4639 1.32886C13.3951 1.32886 14.2881 1.69875 14.9466 2.3572C15.605 3.01564 15.9749 3.90868 15.9749 4.83986V30.5495C15.9749 32.7104 13.8027 34.6721 11.6428 34.6721C8.16353 34.6721 5.63107 32.3638 5.63107 28.7192C3.79515 27.3125 2.55951 24.9443 3.13939 22.7052L3.40329 21.6927L3.27416 21.5919C0.266021 19.2429 0.396244 15.494 3.53236 13.324" stroke="white" stroke-width="1.5" stroke-linecap="round" stroke-linejoin="round"/>
<path d="M11.3517 8.49704C9.68 6.20922 7.08415 5.76638 4.44864 7.59097C3.11785 8.66466 2.15286 10.7758 3.53234 13.3218C3.53234 13.3218 6.61752 11.7725 8.71053 15.1838" stroke="white" stroke-width="1.5" stroke-linecap="round" stroke-linejoin="round"/>
<path d="M5.62885 28.7193C5.62885 28.7193 6.02977 26.7531 8.95636 26.1732" stroke="white" stroke-width="1.5" stroke-linecap="round" stroke-linejoin="round"/>
<path d="M10.4355 27.7203C10.7617 27.8336 7.88716 26.6693 9.21115 24.1753" stroke="white" stroke-width="1.5" stroke-linecap="round" stroke-linejoin="round"/>
<path d="M15.9727 19.1523C15.9727 19.1523 13.7721 18.005 11.8625 19.8783" stroke="white" stroke-width="1.5" stroke-linecap="round" stroke-linejoin="round"/>
<path d="M3.40326 21.6928C3.40326 21.6928 4.26513 19.6926 7.31631 20.499" stroke="white" stroke-width="1.5" stroke-linecap="round" stroke-linejoin="round"/>
<path d="M28.8422 6.35524L28.5953 5.31214C28.3203 4.17727 27.6722 3.16766 26.7547 2.44532C25.8372 1.72298 24.7037 1.3298 23.536 1.32886C22.6049 1.32886 21.7118 1.69875 21.0534 2.3572C20.3949 3.01564 20.025 3.90869 20.025 4.83986V30.5495C20.0249 31.0632 20.126 31.572 20.3225 32.0467C20.519 32.5214 20.8072 32.9527 21.1705 33.3159C21.5338 33.6792 21.9651 33.9674 22.4398 34.1639C22.9145 34.3605 23.4232 34.4616 23.937 34.4614C28.3257 34.4614 29.7879 32.4918 30.7902 29.5619C33.0464 28.2888 33.4416 25.787 32.8583 23.5478L32.5956 22.5365L32.7247 22.4345C33.4241 21.8882 33.9854 21.1852 34.3632 20.3821C34.741 19.579 34.9247 18.6983 34.8996 17.8112C34.8745 16.924 34.6412 16.0552 34.2185 15.2748C33.7959 14.4943 33.1957 13.8242 32.4664 13.3184" stroke="white" stroke-width="1.5" stroke-linecap="round" stroke-linejoin="round"/>
<path d="M25.0843 8.78802C26.765 5.84331 29.3802 5.94299 31.5513 7.5875C33.1845 8.86052 33.4767 11.8381 32.4687 13.3183C32.4687 13.3183 27.9566 12.4123 25.5713 14.7681" stroke="white" stroke-width="1.5" stroke-linecap="round" stroke-linejoin="round"/>
<path d="M25.8058 16.7445C25.8058 16.7445 26.5227 14.2279 23.7773 13.9776" stroke="white" stroke-width="1.5" stroke-linecap="round" stroke-linejoin="round"/>
<path d="M30.7925 29.5619C30.7925 29.5619 30.3916 27.5957 27.4661 27.0158" stroke="white" stroke-width="1.5" stroke-linecap="round" stroke-linejoin="round"/>
<path d="M25.9904 28.5629C25.6642 28.6762 28.5387 27.5119 27.2147 25.0179" stroke="white" stroke-width="1.5" stroke-linecap="round" stroke-linejoin="round"/>
<path d="M32.5979 22.5366C31.495 21.6504 30.0934 21.2226 28.6837 21.3417" stroke="white" stroke-width="1.5" stroke-linecap="round" stroke-linejoin="round"/>
<path d="M20.0273 22.5365C20.9332 22.5071 21.8271 22.7497 22.5938 23.2331" stroke="white" stroke-width="1.5" stroke-linecap="round" stroke-linejoin="round"/>
</g>
<defs>
<clipPath id="clip0_443_756">
<rect width="35.0534" height="34.5902" fill="white" transform="translate(0.473267 0.704895)"/>
</clipPath>
</defs>
</svg>
