<svg width="28" height="34" viewBox="0 0 28 34" fill="none" xmlns="http://www.w3.org/2000/svg">
<g clip-path="url(#clip0_443_742)">
<path d="M5.29511 17.2443C2.86696 14.0042 0.703735 10.8966 0.703735 6.49965C0.703735 3.48924 3.23671 2.43621 4.83674 2.07123" stroke="white" stroke-width="1.5" stroke-linecap="round" stroke-linejoin="round"/>
<path d="M7.36783 1.88065C7.36783 2.50579 6.80749 3.01182 6.11468 3.01182C5.50955 3.01182 5.00448 2.62396 4.88726 2.10841C4.87077 2.03361 4.86246 1.95724 4.86249 1.88065C4.86249 1.2555 5.42283 0.749481 6.11468 0.749481C6.80653 0.749481 7.36783 1.2555 7.36783 1.88065Z" stroke="white" stroke-width="1.5" stroke-linecap="round" stroke-linejoin="round"/>
<path d="M16.501 1.88065C16.501 2.50579 17.0614 3.01182 17.7532 3.01182C18.3593 3.01182 18.8644 2.62396 18.9816 2.10841C18.9981 2.03361 19.0064 1.95724 19.0064 1.88065C19.0064 1.2555 18.446 0.749481 17.7532 0.749481C17.0604 0.749481 16.501 1.2555 16.501 1.88065Z" stroke="white" stroke-width="1.5" stroke-linecap="round" stroke-linejoin="round"/>
<path d="M18.5737 17.2454C21.0009 14.0053 23.1651 10.8977 23.1651 6.49975C23.1651 3.50173 20.6531 2.44488 19.0521 2.07513" stroke="white" stroke-width="1.5" stroke-linecap="round" stroke-linejoin="round"/>
<path d="M0.703735 6.49965C0.703735 3.48924 3.23671 2.43621 4.83674 2.07123" stroke="white" stroke-width="1.5" stroke-linecap="round" stroke-linejoin="round"/>
<path d="M18.5937 17.2605C18.3196 17.0374 17.9682 16.9321 17.6166 16.9679C17.265 17.0036 16.9419 17.1774 16.7183 17.4511C15.2699 19.222 13.6692 20.8626 11.9344 22.3541C10.1995 20.8624 8.5985 19.2219 7.1496 17.4511C7.04267 17.3055 6.90727 17.1831 6.75162 17.0913C6.59597 16.9996 6.42331 16.9404 6.24411 16.9174C6.06491 16.8944 5.8829 16.908 5.70912 16.9575C5.53534 17.0069 5.37342 17.0911 5.23317 17.205C5.09291 17.3189 4.97726 17.4601 4.89321 17.6201C4.80916 17.78 4.75847 17.9553 4.74421 18.1354C4.72996 18.3155 4.75243 18.4967 4.81028 18.6678C4.86812 18.839 4.96012 18.9966 5.08071 19.1312C8.02156 22.7524 10.9996 25.0396 11.1254 25.1348L11.1416 25.1453C11.192 25.1825 11.2448 25.2163 11.2998 25.2463L11.3121 25.254C11.4319 25.3165 11.5604 25.3609 11.6933 25.3855L11.7324 25.3921C11.7974 25.4023 11.863 25.4077 11.9287 25.4083H11.9335C11.9995 25.4078 12.0655 25.4023 12.1307 25.3921L12.1698 25.3855C12.3027 25.3609 12.4312 25.3165 12.551 25.254L12.5634 25.2463C12.6183 25.2163 12.6712 25.1825 12.7216 25.1453L12.7378 25.1348C14.9617 23.3557 16.9882 21.3429 18.7824 19.1312C19.0043 18.8576 19.1089 18.5074 19.0736 18.1569C19.0382 17.8065 18.8658 17.4843 18.5937 17.2605Z" stroke="white" stroke-width="1.5" stroke-linecap="round" stroke-linejoin="round"/>
<path d="M24.079 27.2448C24.079 27.2448 23.3109 33.2485 18.1706 33.2485C13.4496 33.2485 12.1822 29.6958 11.9763 25.4151" stroke="white" stroke-width="1.5" stroke-linecap="round" stroke-linejoin="round"/>
<path d="M27.2981 24.7576C27.2981 26.1146 26.1545 27.2143 24.7337 27.2143C23.3128 27.2143 22.1731 26.1184 22.1731 24.7576C22.1731 23.3967 23.3214 22.3008 24.7375 22.3008C26.1536 22.3008 27.2981 23.4005 27.2981 24.7576Z" stroke="white" stroke-width="1.5" stroke-linecap="round" stroke-linejoin="round"/>
<path d="M25.0701 24.7576C25.0729 24.8249 25.0556 24.8915 25.0202 24.9489C24.9849 25.0062 24.9332 25.0517 24.8718 25.0794C24.8104 25.1071 24.7422 25.1158 24.6758 25.1044C24.6094 25.0929 24.548 25.0619 24.4994 25.0152C24.4508 24.9686 24.4173 24.9084 24.4032 24.8426C24.3891 24.7767 24.395 24.7081 24.4202 24.6457C24.4454 24.5832 24.4887 24.5297 24.5446 24.4921C24.6005 24.4545 24.6663 24.4344 24.7337 24.4345C24.777 24.4337 24.82 24.4413 24.8604 24.4571C24.9007 24.4728 24.9376 24.4964 24.9688 24.5264C25.0001 24.5564 25.0251 24.5922 25.0425 24.6319C25.0598 24.6716 25.0692 24.7143 25.0701 24.7576Z" stroke="white" stroke-width="1.5" stroke-linecap="round" stroke-linejoin="round"/>
</g>
<defs>
<clipPath id="clip0_443_742">
<rect width="27.6426" height="33.551" fill="white" transform="translate(0.17868 0.224487)"/>
</clipPath>
</defs>
</svg>
