<svg width="36" height="32" viewBox="0 0 36 32" fill="none" xmlns="http://www.w3.org/2000/svg">
<g clip-path="url(#clip0_443_721)">
<path d="M1.30707 17.1261H11.5696L14.5664 9.2525L18.4316 22.6779L22.7482 13.3499L25.4802 17.2704H35.403" stroke="white" stroke-width="1.5" stroke-linecap="round" stroke-linejoin="round"/>
<path d="M33.5719 13.9264C34.348 12.3471 34.6345 10.897 34.6345 9.6086C34.6345 6.82995 32.6276 1.08054 26.1076 1.08054C19.5875 1.08054 17.9496 6.66931 17.9496 6.66931C17.9496 6.66931 16.3117 1.08596 9.79167 1.08596C3.27161 1.08596 1.26361 6.83863 1.26361 9.61402C1.26361 10.859 1.5317 12.2559 2.25133 13.7744" stroke="white" stroke-width="1.5" stroke-linecap="round" stroke-linejoin="round"/>
<path d="M7.99213 20.9413C11.8996 25.0778 15.9004 29.0168 17.9497 30.9195C19.9967 29.019 23.9954 25.0844 27.8964 20.9522" stroke="white" stroke-width="1.5" stroke-linecap="round" stroke-linejoin="round"/>
</g>
<defs>
<clipPath id="clip0_443_721">
<rect width="35.3333" height="31.0329" fill="white" transform="translate(0.666626 0.483521)"/>
</clipPath>
</defs>
</svg>
