<svg width="37" height="28" viewBox="0 0 37 28" fill="none" xmlns="http://www.w3.org/2000/svg">
<g clip-path="url(#clip0_443_729)">
<path d="M22.3681 19.8667C22.3887 20.9087 22.6419 21.933 23.1091 22.8646C23.5763 23.7962 24.2458 24.6117 25.0686 25.2514C25.9336 25.9256 27.0687 26.5116 28.5503 26.8213C33.8171 27.9374 36.477 27.6917 36.4716 22.0163C36.4716 18.1123 35.6849 4.04302 26.5637 2.82152C22.7714 2.31294 22.0486 5.38694 22.0873 7.13323L22.3681 19.8667Z" stroke="white" stroke-width="1.5" stroke-linecap="round" stroke-linejoin="round"/>
<path d="M14.9653 19.8667C14.945 20.9083 14.6924 21.9322 14.226 22.8638C13.7596 23.7954 13.0911 24.6111 12.2694 25.2514C11.4034 25.9256 10.2692 26.5116 8.78758 26.8213C3.51992 27.9374 0.859982 27.6917 0.866283 22.0163C0.866283 18.1123 1.65301 4.04302 10.7742 2.82152C14.5665 2.31294 15.2893 5.38694 15.2506 7.13323L14.9653 19.8667Z" stroke="white" stroke-width="1.5" stroke-linecap="round" stroke-linejoin="round"/>
<path d="M19.7631 0.651306V7.3214C19.7631 8.45468 20.4373 9.51686 21.5634 10.1623L21.99 10.4062" stroke="white" stroke-width="1.5" stroke-linecap="round" stroke-linejoin="round"/>
<path d="M17.5703 0.651306V7.3214C17.5703 8.45468 16.8961 9.51686 15.77 10.1623L15.3434 10.4062" stroke="white" stroke-width="1.5" stroke-linecap="round" stroke-linejoin="round"/>
<path d="M18.6667 11.3181C17.4254 12.4325 15.3109 13.0473 15.3109 13.0473" stroke="white" stroke-width="1.5" stroke-linecap="round" stroke-linejoin="round"/>
<path d="M18.6667 11.3181C19.9071 12.4325 22.0215 13.0473 22.0215 13.0473" stroke="white" stroke-width="1.5" stroke-linecap="round" stroke-linejoin="round"/>
</g>
<defs>
<clipPath id="clip0_443_729">
<rect width="36.6" height="27.6894" fill="white" transform="translate(0.366699 0.155273)"/>
</clipPath>
</defs>
</svg>
