<svg width="32" height="30" viewBox="0 0 32 30" fill="none" xmlns="http://www.w3.org/2000/svg">
<g clip-path="url(#clip0_443_776)">
<path d="M5.99587 28.9615C5.21042 29.1853 4.38506 29.0705 3.87408 28.6403C3.00882 27.9113 2.19612 26.7755 1.71239 25.0829C1.0486 22.7645 1.87493 18.116 5.75547 17.0045C8.67537 16.1704 9.86667 18.1861 12.8031 17.3461C15.7396 16.5062 17.3221 14.6053 16.7936 12.7658C15.8573 9.49456 10.4672 8.63513 7.99795 4.95996C7.34682 3.98666 7.93858 3.30536 9.38101 2.88781C10.3611 2.6075 11.348 2.15491 12.0829 2.8187C12.8177 3.48249 13.6265 4.24264 14.9308 5.06313C14.9308 5.06313 16.78 2.00114 19.7145 1.16118C22.649 0.321227 28.6494 1.45998 30.8101 9.01569C32.9708 16.5714 24.5528 22.4394 19.5198 23.8799C10.9782 26.3229 9.55133 21.3328 7.25629 21.9898C5.47905 22.4978 6.12532 24.5836 7.50254 26.1574C8.3094 27.0791 7.63004 28.4933 6.13992 28.9167L5.99587 28.9615Z" stroke="white" stroke-width="1.5" stroke-linecap="round" stroke-linejoin="round"/>
</g>
<defs>
<clipPath id="clip0_443_776">
<rect width="30.7796" height="29.27" fill="white" transform="translate(0.943542 0.36499)"/>
</clipPath>
</defs>
</svg>
